<mxfile host="app.diagrams.net" modified="2023-01-16T02:02:21.018Z" agent="5.0 (Windows NT 10.0; Win64; x64) AppleWebKit/537.36 (KHTML, like Gecko) Chrome/109.0.0.0 Safari/537.36" etag="F9uHy4zPResJoWodvzLP" version="20.8.5" type="github">
  <diagram name="Page-1" id="e7e014a7-5840-1c2e-5031-d8a46d1fe8dd">
    <mxGraphModel dx="3319" dy="937" grid="1" gridSize="10" guides="1" tooltips="1" connect="1" arrows="1" fold="1" page="1" pageScale="1" pageWidth="1169" pageHeight="826" background="none" math="0" shadow="0">
      <root>
        <mxCell id="0" />
        <mxCell id="1" parent="0" />
        <mxCell id="SPDB-RYZYYu29DdNVvm_-6" value="User / Responden" style="swimlane;whiteSpace=wrap;startSize=23;" parent="1" vertex="1">
          <mxGeometry x="-980" y="40" width="1060" height="1340" as="geometry" />
        </mxCell>
        <mxCell id="SPDB-RYZYYu29DdNVvm_-7" value="" style="ellipse;shape=startState;fillColor=#000000;strokeColor=#ff0000;" parent="SPDB-RYZYYu29DdNVvm_-6" vertex="1">
          <mxGeometry x="160" y="50" width="30" height="30" as="geometry" />
        </mxCell>
        <mxCell id="_4xNPdlzkrIhhiaqzIvy-1" value="Memilih List Survei" style="rounded=1;whiteSpace=wrap;html=1;arcSize=40;fontColor=#000000;fillColor=#ffffc0;strokeColor=#ff0000;" vertex="1" parent="SPDB-RYZYYu29DdNVvm_-6">
          <mxGeometry x="115" y="180" width="120" height="40" as="geometry" />
        </mxCell>
        <mxCell id="_4xNPdlzkrIhhiaqzIvy-17" value="Menekan tombol create" style="rounded=1;whiteSpace=wrap;html=1;arcSize=40;fontColor=#000000;fillColor=#ffffc0;strokeColor=#ff0000;" vertex="1" parent="SPDB-RYZYYu29DdNVvm_-6">
          <mxGeometry x="130" y="290" width="120" height="40" as="geometry" />
        </mxCell>
        <mxCell id="_4xNPdlzkrIhhiaqzIvy-24" value="" style="edgeStyle=none;rounded=0;orthogonalLoop=1;jettySize=auto;html=1;strokeColor=#FF0A0A;endArrow=open;endFill=0;" edge="1" parent="SPDB-RYZYYu29DdNVvm_-6" source="_4xNPdlzkrIhhiaqzIvy-21" target="_4xNPdlzkrIhhiaqzIvy-23">
          <mxGeometry relative="1" as="geometry" />
        </mxCell>
        <mxCell id="_4xNPdlzkrIhhiaqzIvy-21" value="Mengisi form survei" style="rounded=1;whiteSpace=wrap;html=1;arcSize=40;fontColor=#000000;fillColor=#ffffc0;strokeColor=#ff0000;" vertex="1" parent="SPDB-RYZYYu29DdNVvm_-6">
          <mxGeometry x="130" y="400" width="120" height="40" as="geometry" />
        </mxCell>
        <mxCell id="_4xNPdlzkrIhhiaqzIvy-23" value="Menekan Tombol simpan" style="rounded=1;whiteSpace=wrap;html=1;arcSize=40;fontColor=#000000;fillColor=#ffffc0;strokeColor=#ff0000;" vertex="1" parent="SPDB-RYZYYu29DdNVvm_-6">
          <mxGeometry x="130" y="460" width="120" height="40" as="geometry" />
        </mxCell>
        <mxCell id="_4xNPdlzkrIhhiaqzIvy-30" value="Menekan Tombol Edit" style="rounded=1;whiteSpace=wrap;html=1;arcSize=40;fontColor=#000000;fillColor=#ffffc0;strokeColor=#ff0000;" vertex="1" parent="SPDB-RYZYYu29DdNVvm_-6">
          <mxGeometry x="150" y="650" width="120" height="40" as="geometry" />
        </mxCell>
        <mxCell id="_4xNPdlzkrIhhiaqzIvy-33" value="Memperbarui form survei" style="rounded=1;whiteSpace=wrap;html=1;arcSize=40;fontColor=#000000;fillColor=#ffffc0;strokeColor=#ff0000;" vertex="1" parent="SPDB-RYZYYu29DdNVvm_-6">
          <mxGeometry x="170" y="790" width="120" height="40" as="geometry" />
        </mxCell>
        <mxCell id="_4xNPdlzkrIhhiaqzIvy-34" value="Menekan Tombol simpan" style="rounded=1;whiteSpace=wrap;html=1;arcSize=40;fontColor=#000000;fillColor=#ffffc0;strokeColor=#ff0000;" vertex="1" parent="SPDB-RYZYYu29DdNVvm_-6">
          <mxGeometry x="170" y="850" width="120" height="40" as="geometry" />
        </mxCell>
        <mxCell id="_4xNPdlzkrIhhiaqzIvy-32" value="" style="edgeStyle=none;rounded=0;orthogonalLoop=1;jettySize=auto;html=1;strokeColor=#FF0A0A;endArrow=open;endFill=0;" edge="1" parent="SPDB-RYZYYu29DdNVvm_-6" source="_4xNPdlzkrIhhiaqzIvy-33" target="_4xNPdlzkrIhhiaqzIvy-34">
          <mxGeometry relative="1" as="geometry" />
        </mxCell>
        <mxCell id="_4xNPdlzkrIhhiaqzIvy-41" value="Menekan Tombol Delete" style="whiteSpace=wrap;html=1;fillColor=#ffffc0;strokeColor=#ff0000;fontColor=#000000;rounded=1;arcSize=40;" vertex="1" parent="SPDB-RYZYYu29DdNVvm_-6">
          <mxGeometry x="140" y="1090" width="120" height="60" as="geometry" />
        </mxCell>
        <mxCell id="SPDB-RYZYYu29DdNVvm_-20" value="Sistem" style="swimlane;whiteSpace=wrap" parent="1" vertex="1">
          <mxGeometry x="-545" y="40" width="625" height="1340" as="geometry" />
        </mxCell>
        <mxCell id="_4xNPdlzkrIhhiaqzIvy-6" value="" style="edgeStyle=none;rounded=0;orthogonalLoop=1;jettySize=auto;html=1;strokeColor=#FF0A0A;endArrow=open;endFill=0;" edge="1" parent="SPDB-RYZYYu29DdNVvm_-20" source="_4xNPdlzkrIhhiaqzIvy-3" target="_4xNPdlzkrIhhiaqzIvy-5">
          <mxGeometry relative="1" as="geometry" />
        </mxCell>
        <mxCell id="_4xNPdlzkrIhhiaqzIvy-3" value="Menampilkan List survei" style="rounded=1;whiteSpace=wrap;html=1;arcSize=40;fontColor=#000000;fillColor=#ffffc0;strokeColor=#ff0000;" vertex="1" parent="SPDB-RYZYYu29DdNVvm_-20">
          <mxGeometry x="247" y="180" width="120" height="40" as="geometry" />
        </mxCell>
        <mxCell id="_4xNPdlzkrIhhiaqzIvy-8" value="" style="edgeStyle=none;rounded=0;orthogonalLoop=1;jettySize=auto;html=1;strokeColor=#FF0A0A;endArrow=open;endFill=0;" edge="1" parent="SPDB-RYZYYu29DdNVvm_-20" source="_4xNPdlzkrIhhiaqzIvy-5" target="_4xNPdlzkrIhhiaqzIvy-7">
          <mxGeometry relative="1" as="geometry" />
        </mxCell>
        <mxCell id="_4xNPdlzkrIhhiaqzIvy-5" value="" style="rhombus;whiteSpace=wrap;html=1;fillColor=#ffffc0;strokeColor=#ff0000;fontColor=#000000;rounded=1;arcSize=40;" vertex="1" parent="SPDB-RYZYYu29DdNVvm_-20">
          <mxGeometry x="267" y="270" width="80" height="80" as="geometry" />
        </mxCell>
        <mxCell id="_4xNPdlzkrIhhiaqzIvy-10" value="" style="edgeStyle=none;rounded=0;orthogonalLoop=1;jettySize=auto;html=1;strokeColor=#FF0A0A;endArrow=open;endFill=0;" edge="1" parent="SPDB-RYZYYu29DdNVvm_-20" source="_4xNPdlzkrIhhiaqzIvy-7" target="_4xNPdlzkrIhhiaqzIvy-9">
          <mxGeometry relative="1" as="geometry" />
        </mxCell>
        <mxCell id="_4xNPdlzkrIhhiaqzIvy-7" value="" style="rhombus;whiteSpace=wrap;html=1;fillColor=#ffffc0;strokeColor=#ff0000;fontColor=#000000;rounded=1;arcSize=40;" vertex="1" parent="SPDB-RYZYYu29DdNVvm_-20">
          <mxGeometry x="267.5" y="630" width="80" height="80" as="geometry" />
        </mxCell>
        <mxCell id="_4xNPdlzkrIhhiaqzIvy-9" value="" style="rhombus;whiteSpace=wrap;html=1;fillColor=#ffffc0;strokeColor=#ff0000;fontColor=#000000;rounded=1;arcSize=40;" vertex="1" parent="SPDB-RYZYYu29DdNVvm_-20">
          <mxGeometry x="265" y="1080" width="80" height="80" as="geometry" />
        </mxCell>
        <mxCell id="_4xNPdlzkrIhhiaqzIvy-13" value="NO" style="text;html=1;align=center;verticalAlign=middle;resizable=0;points=[];autosize=1;strokeColor=none;fillColor=none;" vertex="1" parent="SPDB-RYZYYu29DdNVvm_-20">
          <mxGeometry x="305" y="430" width="40" height="30" as="geometry" />
        </mxCell>
        <mxCell id="_4xNPdlzkrIhhiaqzIvy-14" value="NO" style="text;html=1;align=center;verticalAlign=middle;resizable=0;points=[];autosize=1;strokeColor=none;fillColor=none;" vertex="1" parent="SPDB-RYZYYu29DdNVvm_-20">
          <mxGeometry x="307.5" y="756" width="40" height="30" as="geometry" />
        </mxCell>
        <mxCell id="_4xNPdlzkrIhhiaqzIvy-15" value="NO" style="text;html=1;align=center;verticalAlign=middle;resizable=0;points=[];autosize=1;strokeColor=none;fillColor=none;" vertex="1" parent="SPDB-RYZYYu29DdNVvm_-20">
          <mxGeometry x="492.5" y="550" width="40" height="30" as="geometry" />
        </mxCell>
        <mxCell id="_4xNPdlzkrIhhiaqzIvy-18" value="Menapilkan Form survei" style="rounded=1;whiteSpace=wrap;html=1;arcSize=40;fontColor=#000000;fillColor=#ffffc0;strokeColor=#ff0000;" vertex="1" parent="SPDB-RYZYYu29DdNVvm_-20">
          <mxGeometry x="17.5" y="350" width="120" height="40" as="geometry" />
        </mxCell>
        <mxCell id="_4xNPdlzkrIhhiaqzIvy-25" value="Menampilkan pesan surveo berhasil dibuat" style="rounded=1;whiteSpace=wrap;html=1;arcSize=40;fontColor=#000000;fillColor=#ffffc0;strokeColor=#ff0000;" vertex="1" parent="SPDB-RYZYYu29DdNVvm_-20">
          <mxGeometry x="75" y="460" width="120" height="40" as="geometry" />
        </mxCell>
        <mxCell id="_4xNPdlzkrIhhiaqzIvy-35" value="Menapilkan Form survei" style="rounded=1;whiteSpace=wrap;html=1;arcSize=40;fontColor=#000000;fillColor=#ffffc0;strokeColor=#ff0000;" vertex="1" parent="SPDB-RYZYYu29DdNVvm_-20">
          <mxGeometry x="115" y="720" width="120" height="40" as="geometry" />
        </mxCell>
        <mxCell id="_4xNPdlzkrIhhiaqzIvy-36" value="Menampilkan pesan surveo berhasil diperbarui" style="rounded=1;whiteSpace=wrap;html=1;arcSize=40;fontColor=#000000;fillColor=#ffffc0;strokeColor=#ff0000;" vertex="1" parent="SPDB-RYZYYu29DdNVvm_-20">
          <mxGeometry x="115" y="850" width="120" height="40" as="geometry" />
        </mxCell>
        <mxCell id="_4xNPdlzkrIhhiaqzIvy-39" style="edgeStyle=none;rounded=0;orthogonalLoop=1;jettySize=auto;html=1;strokeColor=#FF0A0A;endArrow=open;endFill=0;" edge="1" parent="SPDB-RYZYYu29DdNVvm_-20" source="_4xNPdlzkrIhhiaqzIvy-36" target="_4xNPdlzkrIhhiaqzIvy-40">
          <mxGeometry relative="1" as="geometry">
            <mxPoint x="247.5" y="940" as="targetPoint" />
          </mxGeometry>
        </mxCell>
        <mxCell id="_4xNPdlzkrIhhiaqzIvy-40" value="" style="ellipse;html=1;shape=endState;fillColor=#000000;strokeColor=#ff0000;" vertex="1" parent="SPDB-RYZYYu29DdNVvm_-20">
          <mxGeometry x="160" y="940" width="30" height="30" as="geometry" />
        </mxCell>
        <mxCell id="_4xNPdlzkrIhhiaqzIvy-48" value="MEnpilkan pesan Ya atau Tidak" style="rounded=1;whiteSpace=wrap;html=1;arcSize=40;fontColor=#000000;fillColor=#ffffc0;strokeColor=#ff0000;" vertex="1" parent="SPDB-RYZYYu29DdNVvm_-20">
          <mxGeometry x="70" y="1160" width="120" height="40" as="geometry" />
        </mxCell>
        <mxCell id="_4xNPdlzkrIhhiaqzIvy-66" value="" style="edgeStyle=orthogonalEdgeStyle;rounded=0;orthogonalLoop=1;jettySize=auto;html=1;strokeColor=#FF0A0A;endArrow=open;endFill=0;" edge="1" parent="SPDB-RYZYYu29DdNVvm_-20" source="_4xNPdlzkrIhhiaqzIvy-64" target="_4xNPdlzkrIhhiaqzIvy-65">
          <mxGeometry relative="1" as="geometry" />
        </mxCell>
        <mxCell id="_4xNPdlzkrIhhiaqzIvy-70" value="" style="edgeStyle=orthogonalEdgeStyle;rounded=0;orthogonalLoop=1;jettySize=auto;html=1;strokeColor=#FF0A0A;endArrow=open;endFill=0;" edge="1" parent="SPDB-RYZYYu29DdNVvm_-20" source="_4xNPdlzkrIhhiaqzIvy-64" target="_4xNPdlzkrIhhiaqzIvy-69">
          <mxGeometry relative="1" as="geometry" />
        </mxCell>
        <mxCell id="_4xNPdlzkrIhhiaqzIvy-64" value="" style="rhombus;whiteSpace=wrap;html=1;fillColor=#ffffc0;strokeColor=#ff0000;fontColor=#000000;rounded=1;arcSize=40;" vertex="1" parent="SPDB-RYZYYu29DdNVvm_-20">
          <mxGeometry x="395" y="1140" width="80" height="80" as="geometry" />
        </mxCell>
        <mxCell id="_4xNPdlzkrIhhiaqzIvy-61" style="edgeStyle=orthogonalEdgeStyle;rounded=0;orthogonalLoop=1;jettySize=auto;html=1;strokeColor=#FF0A0A;endArrow=open;endFill=0;entryX=0;entryY=0.5;entryDx=0;entryDy=0;" edge="1" parent="SPDB-RYZYYu29DdNVvm_-20" source="_4xNPdlzkrIhhiaqzIvy-48" target="_4xNPdlzkrIhhiaqzIvy-64">
          <mxGeometry relative="1" as="geometry">
            <mxPoint x="315" y="1190" as="targetPoint" />
          </mxGeometry>
        </mxCell>
        <mxCell id="_4xNPdlzkrIhhiaqzIvy-73" style="edgeStyle=orthogonalEdgeStyle;rounded=0;orthogonalLoop=1;jettySize=auto;html=1;entryX=1;entryY=0.5;entryDx=0;entryDy=0;strokeColor=#FF0A0A;endArrow=open;endFill=0;" edge="1" parent="SPDB-RYZYYu29DdNVvm_-20" source="_4xNPdlzkrIhhiaqzIvy-65" target="_4xNPdlzkrIhhiaqzIvy-72">
          <mxGeometry relative="1" as="geometry" />
        </mxCell>
        <mxCell id="_4xNPdlzkrIhhiaqzIvy-65" value="menapilkan pesan berhasil dihapus" style="whiteSpace=wrap;html=1;fillColor=#ffffc0;strokeColor=#ff0000;fontColor=#000000;rounded=1;arcSize=40;" vertex="1" parent="SPDB-RYZYYu29DdNVvm_-20">
          <mxGeometry x="372.5" y="1250" width="120" height="60" as="geometry" />
        </mxCell>
        <mxCell id="_4xNPdlzkrIhhiaqzIvy-71" style="edgeStyle=orthogonalEdgeStyle;rounded=0;orthogonalLoop=1;jettySize=auto;html=1;entryX=1;entryY=0.5;entryDx=0;entryDy=0;strokeColor=#FF0A0A;endArrow=open;endFill=0;" edge="1" parent="SPDB-RYZYYu29DdNVvm_-20" source="_4xNPdlzkrIhhiaqzIvy-69" target="_4xNPdlzkrIhhiaqzIvy-3">
          <mxGeometry relative="1" as="geometry">
            <Array as="points">
              <mxPoint x="553" y="200" />
            </Array>
          </mxGeometry>
        </mxCell>
        <mxCell id="_4xNPdlzkrIhhiaqzIvy-69" value="Menampilkan pesan tidak berhasil dihapus" style="whiteSpace=wrap;html=1;fillColor=#ffffc0;strokeColor=#ff0000;fontColor=#000000;rounded=1;arcSize=40;" vertex="1" parent="SPDB-RYZYYu29DdNVvm_-20">
          <mxGeometry x="492.5" y="910" width="120" height="60" as="geometry" />
        </mxCell>
        <mxCell id="_4xNPdlzkrIhhiaqzIvy-72" value="" style="ellipse;html=1;shape=endState;fillColor=#000000;strokeColor=#ff0000;" vertex="1" parent="SPDB-RYZYYu29DdNVvm_-20">
          <mxGeometry x="275" y="1265" width="30" height="30" as="geometry" />
        </mxCell>
        <mxCell id="_4xNPdlzkrIhhiaqzIvy-2" value="" style="edgeStyle=none;rounded=0;orthogonalLoop=1;jettySize=auto;html=1;strokeColor=#FF0A0A;endArrow=open;endFill=0;" edge="1" parent="1" source="RG1qngbpqG3eQFfVuzPi-2" target="_4xNPdlzkrIhhiaqzIvy-1">
          <mxGeometry relative="1" as="geometry" />
        </mxCell>
        <mxCell id="RG1qngbpqG3eQFfVuzPi-2" value="&lt;b&gt;UC-1&lt;br&gt;Login&lt;br&gt;&lt;/b&gt;" style="rounded=1;whiteSpace=wrap;html=1;arcSize=40;fontColor=#000000;fillColor=#ffffc0;strokeColor=#ff0000;" parent="1" vertex="1">
          <mxGeometry x="-865" y="140" width="120" height="40" as="geometry" />
        </mxCell>
        <mxCell id="SPDB-RYZYYu29DdNVvm_-8" value="" style="edgeStyle=elbowEdgeStyle;elbow=horizontal;verticalAlign=bottom;endArrow=open;endSize=8;strokeColor=#FF0000;endFill=1;rounded=0;" parent="1" source="SPDB-RYZYYu29DdNVvm_-7" target="RG1qngbpqG3eQFfVuzPi-2" edge="1">
          <mxGeometry x="-880" y="70" as="geometry">
            <mxPoint x="-805" y="160" as="targetPoint" />
          </mxGeometry>
        </mxCell>
        <mxCell id="_4xNPdlzkrIhhiaqzIvy-4" value="" style="edgeStyle=none;rounded=0;orthogonalLoop=1;jettySize=auto;html=1;strokeColor=#FF0A0A;endArrow=open;endFill=0;" edge="1" parent="1" source="_4xNPdlzkrIhhiaqzIvy-1" target="_4xNPdlzkrIhhiaqzIvy-3">
          <mxGeometry relative="1" as="geometry" />
        </mxCell>
        <mxCell id="_4xNPdlzkrIhhiaqzIvy-16" style="edgeStyle=none;rounded=0;orthogonalLoop=1;jettySize=auto;html=1;strokeColor=#FF0A0A;endArrow=open;endFill=0;" edge="1" parent="1" source="_4xNPdlzkrIhhiaqzIvy-5" target="_4xNPdlzkrIhhiaqzIvy-17">
          <mxGeometry relative="1" as="geometry">
            <mxPoint x="-740" y="350" as="targetPoint" />
          </mxGeometry>
        </mxCell>
        <mxCell id="_4xNPdlzkrIhhiaqzIvy-19" value="" style="edgeStyle=none;rounded=0;orthogonalLoop=1;jettySize=auto;html=1;strokeColor=#FF0A0A;endArrow=open;endFill=0;" edge="1" parent="1" source="_4xNPdlzkrIhhiaqzIvy-17" target="_4xNPdlzkrIhhiaqzIvy-18">
          <mxGeometry relative="1" as="geometry">
            <Array as="points">
              <mxPoint x="-790" y="410" />
            </Array>
          </mxGeometry>
        </mxCell>
        <mxCell id="_4xNPdlzkrIhhiaqzIvy-22" value="" style="edgeStyle=none;rounded=0;orthogonalLoop=1;jettySize=auto;html=1;strokeColor=#FF0A0A;endArrow=open;endFill=0;" edge="1" parent="1" source="_4xNPdlzkrIhhiaqzIvy-18" target="_4xNPdlzkrIhhiaqzIvy-21">
          <mxGeometry relative="1" as="geometry">
            <Array as="points">
              <mxPoint x="-467" y="460" />
            </Array>
          </mxGeometry>
        </mxCell>
        <mxCell id="_4xNPdlzkrIhhiaqzIvy-26" value="" style="edgeStyle=none;rounded=0;orthogonalLoop=1;jettySize=auto;html=1;strokeColor=#FF0A0A;endArrow=open;endFill=0;" edge="1" parent="1" source="_4xNPdlzkrIhhiaqzIvy-23" target="_4xNPdlzkrIhhiaqzIvy-25">
          <mxGeometry relative="1" as="geometry" />
        </mxCell>
        <mxCell id="_4xNPdlzkrIhhiaqzIvy-27" style="edgeStyle=none;rounded=0;orthogonalLoop=1;jettySize=auto;html=1;strokeColor=#FF0A0A;endArrow=open;endFill=0;" edge="1" parent="1" source="_4xNPdlzkrIhhiaqzIvy-25" target="_4xNPdlzkrIhhiaqzIvy-28">
          <mxGeometry relative="1" as="geometry">
            <mxPoint x="-410" y="590" as="targetPoint" />
          </mxGeometry>
        </mxCell>
        <mxCell id="_4xNPdlzkrIhhiaqzIvy-28" value="" style="ellipse;html=1;shape=endState;fillColor=#000000;strokeColor=#ff0000;" vertex="1" parent="1">
          <mxGeometry x="-425" y="575" width="30" height="30" as="geometry" />
        </mxCell>
        <mxCell id="_4xNPdlzkrIhhiaqzIvy-29" style="edgeStyle=none;rounded=0;orthogonalLoop=1;jettySize=auto;html=1;strokeColor=#FF0A0A;endArrow=open;endFill=0;" edge="1" parent="1" source="_4xNPdlzkrIhhiaqzIvy-7" target="_4xNPdlzkrIhhiaqzIvy-30">
          <mxGeometry relative="1" as="geometry">
            <mxPoint x="-710" y="720" as="targetPoint" />
          </mxGeometry>
        </mxCell>
        <mxCell id="_4xNPdlzkrIhhiaqzIvy-31" value="" style="html=1;verticalAlign=bottom;endArrow=open;endSize=8;strokeColor=#ff0000;rounded=0;entryX=0;entryY=0.5;entryDx=0;entryDy=0;edgeStyle=orthogonalEdgeStyle;" edge="1" source="_4xNPdlzkrIhhiaqzIvy-30" parent="1" target="_4xNPdlzkrIhhiaqzIvy-35">
          <mxGeometry relative="1" as="geometry">
            <mxPoint x="-450" y="780" as="targetPoint" />
            <Array as="points">
              <mxPoint x="-770" y="780" />
            </Array>
          </mxGeometry>
        </mxCell>
        <mxCell id="_4xNPdlzkrIhhiaqzIvy-37" value="" style="edgeStyle=none;rounded=0;orthogonalLoop=1;jettySize=auto;html=1;strokeColor=#FF0A0A;endArrow=open;endFill=0;" edge="1" parent="1" source="_4xNPdlzkrIhhiaqzIvy-35" target="_4xNPdlzkrIhhiaqzIvy-33">
          <mxGeometry relative="1" as="geometry">
            <Array as="points">
              <mxPoint x="-370" y="850" />
            </Array>
          </mxGeometry>
        </mxCell>
        <mxCell id="_4xNPdlzkrIhhiaqzIvy-38" value="" style="edgeStyle=none;rounded=0;orthogonalLoop=1;jettySize=auto;html=1;strokeColor=#FF0A0A;endArrow=open;endFill=0;" edge="1" parent="1" source="_4xNPdlzkrIhhiaqzIvy-34" target="_4xNPdlzkrIhhiaqzIvy-36">
          <mxGeometry relative="1" as="geometry" />
        </mxCell>
        <mxCell id="_4xNPdlzkrIhhiaqzIvy-42" value="" style="edgeStyle=orthogonalEdgeStyle;rounded=0;orthogonalLoop=1;jettySize=auto;html=1;strokeColor=#FF0A0A;endArrow=open;endFill=0;" edge="1" parent="1" source="_4xNPdlzkrIhhiaqzIvy-9" target="_4xNPdlzkrIhhiaqzIvy-41">
          <mxGeometry relative="1" as="geometry" />
        </mxCell>
        <mxCell id="_4xNPdlzkrIhhiaqzIvy-50" style="edgeStyle=orthogonalEdgeStyle;rounded=0;orthogonalLoop=1;jettySize=auto;html=1;entryX=0;entryY=0.5;entryDx=0;entryDy=0;strokeColor=#FF0A0A;endArrow=open;endFill=0;" edge="1" parent="1" source="_4xNPdlzkrIhhiaqzIvy-41" target="_4xNPdlzkrIhhiaqzIvy-48">
          <mxGeometry relative="1" as="geometry">
            <Array as="points">
              <mxPoint x="-770" y="1220" />
            </Array>
          </mxGeometry>
        </mxCell>
      </root>
    </mxGraphModel>
  </diagram>
</mxfile>
